<?xml version="1.0" encoding="UTF-8"?>
<svg width="102px" height="96px" viewBox="0 0 102 96" version="1.1" xmlns="http://www.w3.org/2000/svg" xmlns:xlink="http://www.w3.org/1999/xlink">
    <!-- Generator: Sketch 50 (54983) - http://www.bohemiancoding.com/sketch -->
    <title>Group</title>
    <desc>Created with Sketch.</desc>
    <defs></defs>
    <g id="v.2-dark" stroke="none" stroke-width="1" fill="none" fill-rule="evenodd">
        <g id="lesrecordchats-records-copy-7" transform="translate(-39.000000, -39.000000)" stroke="#FFFFFF">
            <g id="Group" transform="translate(40.000000, 40.000000)">
                <polygon id="Stroke-1" points="16.3084983 66.9861105 16.4025843 67.116089 19.8431391 67.1843277 21.815738 69.8813816 14.9677725 75.0220314 12.9032258 75.0447776 15.4264418 78.4946237 16.1876833 76.7160845 22.2679924 72.1538391 24.1935484 71.9122957 19.1770528 65.0537634"></polygon>
                <path d="M16.7164408,58.3820666 L15.1352668,53.7634409 L14.5121861,55.2310217 L6.4516129,62.4955467 L6.6927366,63.1995602 L17.2648371,63.8546542 L18.8172043,64.516129 L17.6830694,61.2013106 L16.9970405,63.025152 L14.6743578,62.9124248 L13.3385752,59.0137644 L15.2056834,57.3558235 L16.7164408,58.3820666 Z M9.21706699,62.6252894 L12.7528366,59.5125292 L13.9040422,62.8730766 L9.21706699,62.6252894 Z" id="Stroke-2"></path>
                <path d="M0,44.374484 L2.62234405,43.3372423 L12.6517746,45.7366842 L14.5253446,47.8494624 L15.7842005,42.5494638 C17.0267077,37.311831 14.8708488,33.0851807 9.97275479,31.9133602 C6.96130982,31.1934182 2.86975556,32.2831784 1.34386958,38.7123261 L0,44.374484 Z M14.7509577,43.3142654 L1.7089923,40.1937873 L2.06321583,38.703573 C2.86103621,35.3412907 5.62833943,33.9779963 9.86812261,34.9922611 C12.4555893,35.6115425 16.1406039,37.4606336 15.069214,41.9739479 L14.7509577,43.3142654 Z" id="Stroke-3"></path>
                <polygon id="Stroke-5" points="22.0430108 27.3014218 19.2684616 27.3907691 10.7503917 21.9033614 9.70845881 19.3548387 6.4516129 24.3114814 9.22723619 24.2210705 17.744232 29.7084781 18.787239 32.2580645"></polygon>
                <g id="Group-12" transform="translate(15.053763, 0.000000)">
                    <path d="M4.20548387,21.9632258 L7.76139785,25.7126882 C8.87,25.3868817 10.4527957,24.4255914 11.5130108,23.5148387 C13.6678495,21.6675269 14.6646237,19.0288172 12.5775269,16.5965591 C9.60978495,13.1352688 4.07537634,18.476129 1.73774194,15.7503226 C0.925913978,14.8030108 1.11623656,13.704086 2.01408602,12.9352688 C3.50010753,11.66 5.65817204,11.5675269 7.67967742,12.8352688 L7.88935484,12.6836559 L4.86569892,9.15784946 L4.29258065,10.0739785 L1.95709677,12.0772043 C-0.45688172,14.148172 -0.323548387,16.5836559 1.00548387,18.1341935 C4.25387097,21.9212903 9.15709677,16.2427957 11.8194624,19.343871 C12.8398925,20.5363441 12.2549462,21.8030108 11.5205376,22.4331183 C9.77322581,23.9309677 6.75924731,23.4556989 4.40225806,21.7954839 L4.20548387,21.9632258 Z" id="Stroke-6"></path>
                    <path d="M23.7404301,5.50236559 L22.2909677,1.38408602 L19.1275269,2.49806452 C14.2382796,4.21741935 12.8812903,8.97978495 14.1511828,12.5916129 C15.5501075,16.567957 18.7845161,18.5077419 22.4372043,17.2227957 C25.5404301,16.1313978 26.5576344,13.0604301 26.708172,10.6356989 L26.3339785,10.5410753 C26.047957,11.8034409 25.2941935,13.5507527 22.8404301,14.4141935 C19.9984946,15.4131183 17.6780645,13.2206452 16.4716129,9.7916129 C15.5296774,7.11419355 15.7877419,4.60666667 18.1619355,3.77225806 C20.2705376,3.02924731 22.2070968,4.12709677 23.4769892,5.59591398 L23.7404301,5.50236559 Z" id="Stroke-8"></path>
                    <path d="M44.2488172,7.86655914 C44.5595699,4.37516129 42.468172,0.691290323 38.5273118,0.340752688 C33.3004301,-0.122688172 30.207957,3.57516129 29.8251613,7.88053763 C29.5154839,11.3719355 31.6058065,15.0547312 35.5466667,15.4052688 C40.7746237,15.8697849 43.8670968,12.1719355 44.2488172,7.86655914 Z M36.924086,1.12784946 C39.9660215,1.39774194 41.4122581,5.77946237 41.0197849,10.1923656 C40.868172,11.8848387 39.7187097,14.8697849 37.1477419,14.6407527 C34.1068817,14.3708602 32.7058065,9.97193548 33.0972043,5.55903226 C33.2488172,3.86655914 34.0326882,0.869784946 36.924086,1.12784946 Z" id="Stroke-10"></path>
                </g>
                <polygon id="Stroke-13" points="64.0736685 7.44107349 64.2180131 7.54380492 68.5899031 5.32742909 70.5166841 6.36348643 64.8894339 16.8147695 62.3655914 18.0890763 67.7194618 20.9677419 67.391406 18.1612069 73.0295914 7.69025184 74.9552788 8.72630918 75.5228153 13.6224451 75.6868432 13.6869255 77.9569892 9.47056556 66.342721 3.22580645"></polygon>
                <polygon id="Stroke-14" points="81.2388902 32.8689687 89.6591435 27.0525635 92.4731183 27.0773646 89.0382704 22.1527219 88.0706618 24.7374315 84.4754487 27.2218582 80.7556276 21.8874576 84.3324204 19.4159706 87.1474787 19.44185 83.7115472 14.516129 82.7461058 17.1008386 74.3074321 22.9301836 71.5053763 22.9215571 74.9413078 27.8483564 75.9132506 25.2334542 79.9538019 22.441709 83.673623 27.773953 79.6330717 30.5667764 76.8310159 30.55815 80.2669474 35.483871"></polygon>
                <path d="M97.2865254,40.3258868 L97.3441228,40.6467099 L100,39.853896 L99.486957,37.0524027 L97.2865254,40.3258868 Z M82.6034708,47.8494624 L87.1963251,47.2197789 L87.1963251,46.9772583 L82.8423931,44.8826635 L82.1437587,41.0556236 L88.2458766,39.8963099 L89.312494,45.7342044 L90.2553838,45.5547609 L89.189833,39.7168665 L94.9986312,38.6141047 L95.6631338,42.2486508 L92.443016,45.2937522 L92.4910137,45.5514983 L96.8950768,44.7140954 L95.0114306,34.4086022 L93.0637873,36.1051587 L83.1026477,37.9963842 L80.6451613,37.136143 L82.6034708,47.8494624 Z" id="Stroke-15"></path>
                <g id="Group-20" transform="translate(72.580645, 50.000000)">
                    <path d="M5.28182796,9.8527957 L9.09043011,9.89795699 C10.0624731,12.3764516 12.3173118,14.0689247 15.0205376,14.6968817 C18.4334409,15.4882796 22.2689247,13.9054839 23.1624731,10.0517204 C24.3484946,4.93989247 21.2216129,1.38827957 17.0108602,0.410860215 C13.5958065,-0.382688172 9.76247312,1.2011828 8.86784946,5.05494624 C8.80010753,5.34956989 8.75709677,5.62591398 8.71623656,5.90333333 C7.31193548,7.10010753 6.07,8.35817204 5.17537634,9.74096774 L5.28182796,9.8527957 Z M22.6065591,8.35494624 C21.9162366,11.3302151 17.481828,12.1764516 13.1656989,11.1743011 C11.5108602,10.7904301 8.8183871,9.26139785 9.40225806,6.74741935 C10.0936559,3.77322581 14.5398925,2.97215054 18.8560215,3.97322581 C20.5097849,4.35817204 23.2635484,5.52806452 22.6065591,8.35494624 Z" id="Stroke-16"></path>
                    <path d="M8.20107527,32.2023656 L8.43978495,34.9443011 L11.5311828,31.2217204 L8.87419355,31.3916129 L4.01182796,27.3529032 C0.305376344,24.2754839 0.840860215,22.1486022 1.93978495,20.8249462 C3.27204301,19.2206452 4.8483871,17.9292473 7.90860215,20.4711828 L13.583871,25.1830108 L14.3193548,27.8636559 L18.1397849,23.2647312 L15.3989247,23.0303226 L9.46021505,18.0969892 C5.55591398,14.8550538 2.49139785,18.5443011 1.65376344,19.5529032 C0.238709677,21.2572043 -0.0752688172,23.1496774 0.521505376,24.6529032 C0.997849462,25.8303226 1.44946237,26.5668817 2.95376344,27.8174194 L8.16451613,32.1443011 L8.20107527,32.2023656 Z" id="Stroke-18"></path>
                </g>
                <polygon id="Stroke-21" points="60.4280787 85.3325465 60.6603523 85.2681669 61.4937412 80.498714 64.9584883 78.8205533 67.6920038 84.4376705 62.4099313 86.9967583 62.8325401 87.8648094 68.1146127 85.3067946 70.7158613 90.6524446 67.4285454 92.2469119 63.6648536 89.9195906 63.4336554 90.0322548 65.4069053 94.0860215 74.7311828 89.566576 72.5934059 88.1223277 68.1296674 78.9525315 68.2931192 76.344086 58.6021505 81.0416484"></polygon>
            </g>
        </g>
    </g>
</svg>